<svg width="348" height="78" viewBox="0 0 348 78" fill="none" xmlns="http://www.w3.org/2000/svg">
<path d="M24.9375 4.84943C21.2513 4.84943 18.2812 7.81943 18.2812 11.5057C18.2812 15.1918 21.2513 18.1621 24.9375 18.1621C28.6237 18.1621 31.5938 15.1918 31.5938 11.5057C31.5938 7.81943 28.6237 4.84943 24.9375 4.84943V4.84943ZM11.4375 7.84943C8.57972 7.84943 6.28125 10.1479 6.28125 13.0057C6.28125 15.8634 8.57972 18.1621 11.4375 18.1621C14.2953 18.1621 16.5938 15.8634 16.5938 13.0057C16.5938 10.1479 14.2953 7.84943 11.4375 7.84943ZM9.28125 19.8494V30.1621H31.5938V19.8494H9.28125ZM42.0938 20.2852L33.2812 24.0619V25.9494L42.0938 29.7261V20.2852ZM5.90625 20.5057V23.5057H7.59375V20.5057H5.90625ZM16.5 31.8496V33.5369H17.7199L12.9271 46.3127H14.7292L19.5579 33.5369L19.5938 46.3127H21.2812L21.3171 33.5369L26.1458 46.3127H27.9479L23.1551 33.5369H24.375V31.8496C21.7497 31.8493 19.1253 31.8496 16.5 31.8496Z" fill="#01B4E4"/>
<path d="M50.24 48V25.12H54.528L65.12 32.544H65.28L75.872 25.12H80.16V48H75.04V31.52L67.776 36.384V48H62.656V36.384L55.36 31.52V48H50.24ZM92.6143 48.16C89.7556 48.16 87.5263 47.456 85.9263 46.048C84.3263 44.6187 83.5263 42.528 83.5263 39.776C83.5263 37.0027 84.3263 34.912 85.9263 33.504C87.5263 32.0747 89.7556 31.36 92.6143 31.36H98.5343C101.393 31.36 103.622 32.0747 105.222 33.504C106.822 34.912 107.622 37.0027 107.622 39.776C107.622 42.528 106.822 44.6187 105.222 46.048C103.622 47.456 101.393 48.16 98.5343 48.16H92.6143ZM92.6143 44.48H98.5343C99.9209 44.48 100.977 44.096 101.702 43.328C102.449 42.56 102.822 41.376 102.822 39.776C102.822 38.1547 102.449 36.96 101.702 36.192C100.977 35.424 99.9209 35.04 98.5343 35.04H92.6143C91.2276 35.04 90.1609 35.424 89.4143 36.192C88.6889 36.96 88.3263 38.1547 88.3263 39.776C88.3263 41.376 88.6889 42.56 89.4143 43.328C90.1609 44.096 91.2276 44.48 92.6143 44.48ZM115.702 48L108.758 31.52H113.622L118.998 44.288H120.598L125.974 31.52H130.838L123.894 48H115.702ZM132.916 48V31.52H137.556V48H132.916ZM132.884 28.8V25.184H137.588V28.8H132.884ZM149.521 48.16C146.662 48.16 144.433 47.456 142.833 46.048C141.233 44.6187 140.433 42.528 140.433 39.776C140.433 37.0027 141.233 34.912 142.833 33.504C144.433 32.0747 146.662 31.36 149.521 31.36H157.521C159.398 31.36 160.827 31.808 161.809 32.704C162.811 33.5787 163.313 34.8373 163.313 36.48C163.313 39.8293 161.382 41.504 157.521 41.504H145.425C145.873 43.488 147.238 44.48 149.521 44.48H162.481V48.16H149.521ZM149.521 35.04C147.323 35.04 145.969 35.968 145.457 37.824H157.297C157.723 37.824 158.054 37.696 158.289 37.44C158.545 37.184 158.673 36.832 158.673 36.384C158.673 35.488 158.214 35.04 157.297 35.04H149.521Z" fill="white"/>
<path d="M166.358 48V43.424H171.478V48H166.358ZM175.709 48V25.12H194.877C197.245 25.12 199.079 25.7173 200.381 26.912C201.703 28.1067 202.365 29.92 202.365 32.352C202.365 34.784 201.703 36.5973 200.381 37.792C199.079 38.9867 197.245 39.584 194.877 39.584H180.829V48H175.709ZM194.269 29.28H180.829V35.392L194.269 35.424C195.207 35.424 195.922 35.1893 196.413 34.72C196.925 34.2507 197.181 33.4613 197.181 32.352C197.181 31.2213 196.925 30.432 196.413 29.984C195.922 29.5147 195.207 29.28 194.269 29.28ZM205.553 48V25.12H210.673V48H205.553Z" fill="#01B4E4"/>
</svg>
